<svg viewBox="0 0 16 16" xmlns="http://www.w3.org/2000/svg">
<g clip-path="url(#clip0_6_1564)">
<path d="M15.6409 13.9014L9.73546 7.98387L15.6089 2.09873C16.0879 1.61853 16.0879 0.840124 15.6089 0.360193C15.1297 -0.119739 14.3531 -0.119739 13.8738 0.360193L8.00037 6.24534L2.12717 0.360193C1.64793 -0.119739 0.871327 -0.119739 0.392085 0.360193C-0.0871562 0.840387 -0.0871562 1.6188 0.392085 2.09873L6.26529 7.98387L0.359279 13.9014C-0.119963 14.3816 -0.119963 15.1597 0.359279 15.6399C0.598899 15.88 0.912795 15.9999 1.22695 15.9999C1.54111 15.9999 1.85501 15.88 2.09463 15.6399L8.00037 9.72241L13.9059 15.6399C14.1455 15.88 14.4594 15.9999 14.7735 15.9999C15.0877 15.9999 15.4016 15.88 15.6412 15.6399C16.1199 15.16 16.1199 14.3816 15.6409 13.9014Z"/>
</g>
</svg>
