<svg viewBox="0 0 21 18"  xmlns="http://www.w3.org/2000/svg">
<path fill-rule="evenodd" clip-rule="evenodd" d="M12.26 -4.12203e-06C7.17 -0.140004 3 3.95 3 9H1.21C0.76 9 0.54 9.54 0.86 9.85L3.65 12.65C3.85 12.85 4.16 12.85 4.36 12.65L7.15 9.85C7.46 9.54 7.24 9 6.79 9H5C5 5.1 8.18 1.95 12.1 2C15.82 2.05 18.95 5.18 19 8.9C19.05 12.81 15.9 16 12 16C10.39 16 8.9 15.45 7.72 14.52C7.32 14.21 6.76 14.24 6.4 14.6C5.98 15.02 6.01 15.73 6.48 16.09C8 17.29 9.91 18 12 18C17.05 18 21.14 13.83 21 8.74C20.87 4.05 16.95 0.129996 12.26 -4.12203e-06ZM11.75 5C11.34 5 11 5.34 11 5.75V9.43C11 9.78 11.19 10.11 11.49 10.29L14.61 12.14C14.97 12.35 15.43 12.23 15.64 11.88C15.85 11.52 15.73 11.06 15.38 10.85L12.5 9.14V5.74C12.5 5.34 12.16 5 11.75 5Z"/>
</svg>
